Coordinates
version=1
nRows=15
nColumns=23
inDegrees=yes

Units are S.I. units (second, meters, Newtons, ...)
If the header above contains a line with 'inDegrees', this indicates whether rotational values are in degrees (yes) or radians (no).

endheader
time	pelvis_tilt	pelvis_list	pelvis_rotation	pelvis_tx	pelvis_ty	pelvis_tz	hip_flexion_r	hip_adduction_r	hip_rotation_r	knee_angle_r	knee_angle_r_beta	ankle_angle_r	subtalar_angle_r	mtp_angle_r	hip_flexion_l	hip_adduction_l	hip_rotation_l	knee_angle_l	knee_angle_l_beta	ankle_angle_l	subtalar_angle_l	mtp_angle_l
     15.00000000	     -3.09618822	      5.68401429	      8.47643594	      2.22000914	      0.92531946	      1.00060743	     26.57437066	    -11.99848579	     -5.55919580	     93.88135801	      1.63853880	     -2.20891534	    -17.00242289	      0.00000000	     14.09815683	     11.91042557	      6.94079283	     41.78773062	      0.72933349	     22.23794676	    -14.57600554	      0.00000000
     15.00666667	     -3.26751044	      5.37956733	      7.90848579	      2.21975327	      0.92745299	      1.00135246	     28.64017891	    -11.36200334	     -4.63394984	     92.79894384	      1.61964711	     -1.54949992	    -16.29301147	      0.00000000	     12.03363274	     11.12353799	      6.59705438	     40.36941198	      0.70457916	     22.38179098	    -13.77374075	      0.00000000
     15.01333333	     -3.50542110	      5.05065949	      7.28801753	      2.21966369	      0.92989864	      1.00223870	     30.62892193	    -10.61891460	     -3.76421561	     91.39823297	      1.59520010	     -0.93319149	    -15.67203185	      0.00000000	      9.96869595	     10.31987134	      6.15109951	     38.74332813	      0.67619864	     22.03547800	    -13.13280111	      0.00000000
     15.02000000	     -3.72457111	      4.71774253	      6.65387211	      2.21977351	      0.93268335	      1.00312998	     32.40250437	     -9.85481263	     -3.02252325	     89.68211774	      1.56524823	     -0.35325339	    -15.13887325	      0.00000000	      7.82537720	      9.52715019	      5.60989402	     36.96182701	      0.64510558	     21.33593707	    -12.45955453	      0.00000000
     15.02666667	     -3.77877243	      4.32100264	      6.01965249	      2.22017652	      0.93607650	      1.00408346	     33.75256246	     -8.96796074	     -2.44940504	     87.59461727	      1.52881448	      0.15941462	    -14.76025553	      0.00000000	      5.43267071	      8.67616507	      5.05007032	     34.99660878	      0.61080605	     20.31267165	    -11.79942858	      0.00000000
     15.03333333	     -3.79015938	      3.86966977	      5.41574027	      2.22085706	      0.93980044	      1.00499151	     34.82368043	     -8.05959003	     -2.07446960	     85.18729481	      1.48679878	      0.59879899	    -14.56901840	      0.00000000	      2.96368035	      7.80858810	      4.44978943	     32.90001840	      0.57421364	     18.85038491	    -11.25553241	      0.00000000
     15.04000000	     -3.65975668	      3.21840064	      5.07390225	      2.22191425	      0.94406640	      1.00546848	     35.39442462	     -7.13883450	     -2.18109877	     82.36162941	      1.43748161	      0.91734840	    -14.58873084	      0.00000000	      0.33562057	      6.76760568	      4.06412279	     30.72983089	      0.53633673	     16.90749305	    -10.76511668	      0.00000000
     15.04666667	     -4.12790760	      2.95197033	      4.43228032	      2.22273426	      0.94726447	      1.00644367	     36.70663054	     -6.41470927	     -1.78929557	     79.59222674	      1.38914642	      1.31013414	    -14.56553274	      0.00000000	     -1.54622613	      6.21689481	      3.19661732	     28.66032580	      0.50021705	     14.65409856	    -10.25973717	      0.00000000
     15.05333333	     -4.22004098	      2.43253883	      4.03252808	      2.22400568	      0.95130437	      1.00698537	     37.22774652	     -5.65155121	     -1.95936798	     76.36669732	      1.33285031	      1.53137995	    -14.86238041	      0.00000000	     -3.84279889	      5.44037251	      2.66001251	     26.48443287	      0.46224055	     11.98747707	    -10.05663130	      0.00000000
     15.06000000	     -4.70375171	      2.11483814	      3.54889478	      2.22518174	      0.95460654	      1.00769305	     38.13477124	     -5.05339224	     -1.99521173	     73.08126715	      1.27550873	      1.80825663	    -15.01674715	      0.00000000	     -5.54403576	      4.91522549	      1.82475026	     24.54879444	      0.42845729	      9.07648486	     -9.62524000	      0.00000000
     15.06666667	     -4.81264514	      1.53311336	      3.35328062	      2.22676039	      0.95867711	      1.00793957	     38.26573012	     -4.43489571	     -2.61301205	     69.34830910	      1.21035632	      1.92624718	    -15.38152341	      0.00000000	     -7.61119367	      4.13068359	      1.37881972	     22.58355079	      0.39415732	      5.83811662	     -9.61934846	      0.00000000
     15.07333333	     -5.31196778	      1.25037935	      2.96804903	      2.22812772	      0.96187569	      1.00852771	     38.83540774	     -3.97662424	     -2.92823344	     65.62419165	      1.14535821	      2.09718996	    -15.62516332	      0.00000000	     -9.02862379	      3.69137762	      0.50407943	     20.97165483	      0.36602443	      2.51329079	     -9.31799167	      0.00000000
     15.08000000	     -6.56601436	      1.33108168	      2.71486856	      2.22921769	      0.96367737	      1.00891624	     40.23786286	     -4.05099329	     -3.28389836	     62.01454607	      1.08235801	      2.51117964	    -15.31536915	      0.00000000	     -9.20672620	      3.62665560	     -0.51536238	     20.10944281	      0.35097599	     -0.50320214	     -8.49888360	      0.00000000
     15.08666667	     -6.39263246	      0.82365387	      2.31449764	      2.23094420	      0.96776979	      1.00959458	     39.62100692	     -3.31983540	     -3.94102236	     57.69060771	      1.00689105	      2.54716113	    -15.52091306	      0.00000000	    -11.18735630	      2.97816580	     -1.38614568	     18.60390966	      0.32469948	     -4.38285084	     -8.89207412	      0.00000000
     15.09333333	     -6.89835668	      0.63724547	      2.08442293	      2.23244299	      0.97055160	      1.01001849	     39.73477048	     -3.09556762	     -4.71310453	     53.49409297	      0.93364805	      2.91865298	    -14.91597903	      0.00000000	    -12.00371089	      2.65185255	     -2.26551893	     17.88566513	      0.31216375	     -7.79267437	     -8.88015759	      0.00000000
